<svg fill="#fff" id="Capa_1" enable-background="" height="512" viewBox="0 0 512 512" width="512" xmlns="http://www.w3.org/2000/svg"><g><path d="m437.019 74.98c-48.352-48.352-112.639-74.98-181.019-74.98-68.381 0-132.668 26.629-181.02 74.98-48.351 48.352-74.98 112.64-74.98 181.02s26.629 132.667 74.98 181.019c48.352 48.352 112.64 74.981 181.02 74.981s132.667-26.629 181.019-74.981 74.981-112.64 74.981-181.019c0-68.38-26.629-132.667-74.981-181.02zm-181.019 407.02c-124.617 0-226-101.383-226-226s101.383-226 226-226 226 101.383 226 226-101.383 226-226 226z"/><path d="m421.75 256c0 91.395-74.355 165.75-165.75 165.75v30c107.936 0 195.75-87.813 195.75-195.75z"/><path d="m256 90.25v-30c-107.936 0-195.75 87.813-195.75 195.75h30c0-91.395 74.355-165.75 165.75-165.75z"/><path d="m301.125 301.125h75.312v-90.25h-75.312v-75.312h-90.25v75.312h-75.312v90.25h75.312v75.312h90.25zm-30 45.313h-30.25v-75.312h-75.312v-30.25h75.312v-75.312h30.25v75.312h75.312v30.25h-75.312z"/></g></svg>